<?xml version="1.0" encoding="utf-8"?>
<!-- Svg Vector Icons : http://www.onlinewebfonts.com/icon -->
<!DOCTYPE svg PUBLIC "-//W3C//DTD SVG 1.1//EN" "http://www.w3.org/Graphics/SVG/1.1/DTD/svg11.dtd">
<svg version="1.1" xmlns="http://www.w3.org/2000/svg" xmlns:xlink="http://www.w3.org/1999/xlink" x="0px" y="0px" viewBox="0 0 1000 1000" enable-background="new 0 0 1000 1000" xml:space="preserve">
<metadata> Svg Vector Icons : http://www.onlinewebfonts.com/icon </metadata>
<path filL="#fff" d="M169.1,25.6c4.7,9.9,9.3,19.8,14.1,29.7c63.6,131.2,127.3,262.3,190.9,393.5c1.4,2.8,2.8,3.8,6,3.8c111.1-0.1,222.2-0.1,333.3,0c2.9,0,4.4-1,5.8-3.4C780.6,340.4,842,231.8,903.4,123.1c0.5-0.8,0.9-1.6,1.6-2.7c1,0.5,2,1,2.9,1.5c26.4,14.2,52.7,28.4,79.1,42.5c1,0.5,2,0.9,3,1.4c0,0.2,0,0.4,0,0.6c-7.8,13.7-15.6,27.4-23.4,41.2C912.2,304,857.8,400.4,803.4,496.8c-15.9,28.2-40.1,44.5-71.9,49.6c-5.3,0.8-10.8,1-16.1,1c-118.7,0.1-237.3,0.1-356,0c-3.2,0-4.9,1-6.4,3.8c-13.3,23.9-26.9,47.6-40.2,71.4c-1.5,2.7-2.6,6.1-2.6,9.2c0.1,5.2,5.2,9.8,10.5,10.3c1.6,0.1,3.2,0.1,4.7,0.1c185.1,0,370.2,0,555.3,0c1.3,0,2.6,0,4.1,0c0,31.7,0,63.1,0,94.9c-1,0-2,0-3,0c-193.1,0-386.2,0-579.3,0c-43,0-80.4-26.3-93.3-65.9c-8.3-25.5-6.1-50.4,7.1-73.8c21.4-38.2,43-76.3,64.6-114.4c1-1.8,1.1-3.2,0.2-5.1c-57.5-118.2-115-236.5-172.4-354.8c-0.9-1.9-1.9-2.7-4.2-2.7c-31.5,0.1-62.9,0.1-94.4,0.1c0-31.6,0-63.3,0-94.9C63,25.6,116.1,25.6,169.1,25.6z"/><path d="M293.7,974.4c-5.9-1.1-12-1.7-17.7-3.5c-38.3-11.7-62.8-36.9-69.7-76.6c-7.3-42.2,15.1-82.4,54-100.6c54.3-25.4,119.3,4,135.3,61.2c12.5,44.5-10.5,91.8-54,111.1c-9.6,4.2-19.6,6.9-30.1,7.9c-0.7,0.1-1.4,0.3-2.2,0.5C304.1,974.4,298.9,974.4,293.7,974.4z"/><path d="M780,974.4c-6-1.1-12.1-1.9-18-3.4c-36.9-9.7-65.2-41.5-70.1-78.6c-5.5-41.2,16.3-80.7,54.3-98.5c54.7-25.7,120.1,4.1,135.7,61.9c11.9,43.8-10.6,90.2-53.1,109.7c-10,4.6-20.4,7.4-31.3,8.5c-0.6,0.1-1.2,0.3-1.9,0.5C790.5,974.4,785.3,974.4,780,974.4z"/>
</svg>